<svg width="16" height="15" viewBox="0 0 16 15" fill="none" xmlns="http://www.w3.org/2000/svg">
<g clip-path="url(#clip0_340_127)">
<path d="M1.76933 5.23998C1.95927 5.37388 2.53184 5.77155 3.48706 6.43279C4.4423 7.09404 5.17409 7.60318 5.68244 7.96025C5.73829 7.99939 5.85695 8.08447 6.03847 8.21561C6.22002 8.34684 6.37087 8.45288 6.49091 8.53377C6.61103 8.61463 6.75625 8.70534 6.92671 8.80576C7.09711 8.90609 7.25774 8.98155 7.40856 9.03151C7.55941 9.08188 7.69905 9.10683 7.82751 9.10683H7.83594H7.84439C7.97285 9.10683 8.11255 9.08185 8.2634 9.03151C8.41417 8.98155 8.57494 8.906 8.74519 8.80576C8.91553 8.70523 9.06075 8.6146 9.18088 8.53377C9.301 8.45288 9.45174 8.34684 9.63335 8.21561C9.81484 8.08435 9.93365 7.99939 9.9895 7.96025C10.5033 7.60318 11.8106 6.69634 13.9109 5.2398C14.3187 4.95533 14.6594 4.61207 14.9331 4.21026C15.207 3.80863 15.3438 3.3873 15.3438 2.9465C15.3438 2.57814 15.211 2.26282 14.9456 2.00057C14.6803 1.73826 14.366 1.60718 14.003 1.60718H1.66875C1.23864 1.60718 0.907647 1.75224 0.675821 2.04238C0.444024 2.33257 0.328125 2.6953 0.328125 3.13053C0.328125 3.48208 0.481795 3.86305 0.78899 4.27318C1.09615 4.68334 1.42304 5.00564 1.76933 5.23998Z" fill="#337D5A"/>
<path d="M14.5057 6.13568C12.6737 7.37441 11.2825 8.3371 10.333 9.02356C10.0146 9.25784 9.75629 9.44073 9.55792 9.57178C9.35955 9.70292 9.09574 9.83685 8.76609 9.9735C8.43656 10.1104 8.12945 10.1786 7.84451 10.1786H7.83597H7.82754C7.54265 10.1786 7.23537 10.1104 6.90584 9.9735C6.57631 9.83685 6.31232 9.70292 6.11401 9.57178C5.91576 9.44073 5.65737 9.25784 5.339 9.02356C4.58482 8.47114 3.19668 7.50839 1.17452 6.13568C0.856022 5.92377 0.573921 5.68086 0.328125 5.40747V12.0535C0.328125 12.422 0.459344 12.7372 0.721928 12.9994C0.984453 13.2618 1.30013 13.393 1.66884 13.393H14.0032C14.3718 13.393 14.6874 13.2618 14.95 12.9994C15.2126 12.7371 15.3438 12.422 15.3438 12.0535V5.40747C15.1035 5.67521 14.8243 5.91811 14.5057 6.13568Z" fill="#337D5A"/>
</g>
<defs>
<clipPath id="clip0_340_127">
<rect width="15.0156" height="15" fill="white" transform="translate(0.328125)"/>
</clipPath>
</defs>
</svg>
