<svg width="22" height="24" viewBox="0 0 22 24" fill="none" xmlns="http://www.w3.org/2000/svg">
<path d="M21.5734 23.255L20.2009 6.27062C20.1738 5.93557 19.894 5.67742 19.5578 5.67742H15.8732V4.86065C15.8732 2.18047 13.7215 0 11.0412 0H10.9561C8.2759 0 6.06678 2.18047 6.06678 4.86065V5.67742H2.43951C2.10334 5.67742 1.82351 5.93557 1.79642 6.27062L0.420074 23.3029C0.405536 23.4825 0.466783 23.6599 0.588934 23.7923C0.711084 23.9246 0.883127 24 1.06317 24H20.9341C20.9347 24 20.9353 24 20.9359 24C21.2922 24 21.581 23.7112 21.581 23.3548C21.581 23.3209 21.5784 23.2875 21.5734 23.255ZM7.3571 4.86065C7.3571 2.89196 8.98738 1.29032 10.9561 1.29032H11.0412C13.0099 1.29032 14.5829 2.89196 14.5829 4.86065V5.67742H7.3571V4.86065Z" fill="#337D5A"/>
</svg>
